<svg width="128" height="128" xmlns="http://www.w3.org/2000/svg">
  <g fill="#f6f6f6">
    <path d="M113 121H14c-3.86 0-7-3.14-7-7V15c0-3.86 3.14-7 7-7h99c3.86 0 7 3.14 7 7v99c0 3.86-3.14 7-7 7z" />
    <path fill="#bce6f0"
          d="M14 10c-2.757 0-5 2.243-5 5v99c0 2.757 2.243 5 5 5h99c2.757 0 5-2.243 5-5V15c0-2.757-2.243-5-5-5H14m0-4h99a9 9 0 019 9v99a9 9 0 01-9 9H14a9 9 0 01-9-9V15a9 9 0 019-9z" />
  </g>
  <path stroke-width="3" stroke="#f45554" fill="#f45554" d="M81.607 69.392a118.067 118.067 0 01-22.172 25.622Q47.1 105.539 39.334 105.539q-8.541 0-8.541-11.388a137.2 137.2 0 011.122-13.89l3.106-28.3q.086-.6.431-5l.518-5.608a44.045 44.045 0 00.259-4.486q0-5-2.847-5-6.557 0-14.148 14.752a3.593 3.593 0 01-1.639-2.761q0-5.349 9.533-14.235t15.141-8.886q7.16 0 7.16 9.835a50 50 0 01-.345 5.435l-.778 6.642-.776 7.247-2.761 24.672a117.125 117.125 0 00-.69 12.768q0 5.953 4.4 5.953 9.749 0 22.042-16.046t14.536-31.748l2.934-20.446 13.976-4.745q-2.416 10.007-3.623 17.858l-5.177 36.061q-.431 3.278-.69 5.521l-.6 4.745a61.74 61.74 0 00-.518 6.211q0 3.71 2.07 3.71 7.333 0 14.925-16.219 2.329 1.38 2.329 2.761 0 3.019-7.506 12.164-10.096 12.423-18.723 12.423-6.3 0-6.3-8.455a56.538 56.538 0 01.6-7.16l.949-6.9q.776-5.608 1.035-7.592l.869-6.04z" />
  <path fill="white" opacity=".84" d="M32 72h78a6 6 0 016 6v32a6 6 0 01-6 6H32a6 6 0 01-6-6V78a6 6 0 016-6z" />
  <path fill="#006f0b" d="M54.489 101.162a8.178 8.178 0 01-2.507 5.992 8.178 8.178 0 01-5.993 2.508h-4.25a8.178 8.178 0 01-5.992-2.508 8.178 8.178 0 01-2.508-5.992v-12.75a8.178 8.178 0 012.508-5.993 8.178 8.178 0 015.992-2.507h4.25a8.178 8.178 0 015.993 2.507 8.178 8.178 0 012.507 5.993h-4.25a4.089 4.089 0 00-1.254-3 4.089 4.089 0 00-3-1.254h-4.246a4.089 4.089 0 00-3 1.254 4.089 4.089 0 00-1.254 3v12.75a4.089 4.089 0 001.254 3 4.089 4.089 0 003 1.254h4.25a4.089 4.089 0 003-1.254 4.089 4.089 0 001.25-3h4.25zm23.46 0a8.178 8.178 0 01-2.51 5.992 8.178 8.178 0 01-5.99 2.508h-4.25a8.178 8.178 0 01-5.993-2.508 8.178 8.178 0 01-2.507-5.992v-12.75a8.178 8.178 0 012.507-5.993 8.178 8.178 0 015.993-2.507h4.25a8.178 8.178 0 015.99 2.507 8.178 8.178 0 012.51 5.993h-4.25a4.089 4.089 0 00-1.254-3 4.089 4.089 0 00-3-1.254h-4.246a4.089 4.089 0 00-3 1.254 4.089 4.089 0 00-1.254 3v12.75a4.089 4.089 0 001.254 3 4.089 4.089 0 003 1.254h4.25a4.089 4.089 0 003-1.254 4.089 4.089 0 001.254-3h4.246z" />
  <path fill="#006f0b" d="M102.831 94.692L84.069 80.621a1.173 1.173 0 00-1.878.938v28.142a1.174 1.174 0 00.647 1.048 1.192 1.192 0 00.525.124 1.174 1.174 0 00.7-.235l18.768-14.07a1.173 1.173 0 000-1.876z" />
  <path fill="#006f0b" d="M109.508 80.382h-2.345a1.173 1.173 0 00-1.175 1.177v28.142a1.173 1.173 0 001.173 1.173h2.345a1.173 1.173 0 001.173-1.173V81.559a1.173 1.173 0 00-1.171-1.177z" />
</svg>
